<?xml version="1.0" encoding="utf-8"?>
<!-- Generator: Adobe Illustrator 18.1.1, SVG Export Plug-In . SVG Version: 6.00 Build 0)  -->
<svg version="1.1" id="Layer_1" xmlns="http://www.w3.org/2000/svg" xmlns:xlink="http://www.w3.org/1999/xlink" x="0px" y="0px"
	 viewBox="0 0 2140.4 500" enable-background="new 0 0 2140.4 500" xml:space="preserve">
<g>
	<path d="M60,438.5c-6.5-3.7-18.4-10.7-18.9-11.1c-3.1-1.9-6.2-3.6-11.7,0c-0.8,0.6-15.3,8.7-19.5,11.2c-5.1,2.9-7.9,7.3-7.9,13.8
		c0,0.2,0,19.2,0,22.1c0,6.5,4.6,9.5,7.9,11.4c6.5,3.7,18.8,10.8,19.3,11.1c3.1,1.9,6.3,3.6,11.8,0c0.8-0.5,14.7-8.8,18.8-11.2
		c5.1-3,7.2-4.7,7.2-11.2c0-0.2,0-21.3,0-24.7C67.1,443.4,63.2,440.4,60,438.5z"/>
	<path d="M60,346.5c-6.5-3.7-18.4-10.7-18.9-11.1c-3.1-1.9-6.2-3.6-11.7,0c-0.8,0.6-15.3,8.7-19.5,11.2c-5.1,2.9-7.9,7.3-7.9,13.8
		c0,0.2,0,19.2,0,22.1c0,6.5,4.6,9.5,7.9,11.4c6.5,3.7,18.8,10.8,19.3,11.1c3.1,1.9,6.3,3.6,11.8,0c0.8-0.5,14.7-8.8,18.8-11.2
		c5.1-3,7.2-4.7,7.2-11.2c0-0.2,0-21.3,0-24.7C67.1,351.3,63.2,348.4,60,346.5z"/>
	<path d="M192.5,346.5c-6.5-3.7-18.6-10.7-19.2-11.1c-3.1-1.9-6.3-3.6-11.8,0c-0.8,0.6-15.8,8.7-20,11.2c-5.1,2.9-8.4,7.3-8.4,13.8
		c0,0.2,0,19.2,0,22.1c0,6.5,5.1,9.5,8.3,11.4c6.5,3.7,19,10.8,19.5,11.1c3.1,1.9,6.5,3.6,12,0c0.8-0.5,15.2-8.8,19.4-11.2
		c5.1-3,7.8-4.7,7.8-11.2c0-0.2,0-21.3,0-24.7C200.1,351.3,195.7,348.4,192.5,346.5z"/>
	<path d="M192.5,255.4c-6.5-3.7-18.6-10.7-19.2-11.1c-3.1-1.9-6.3-3.6-11.8,0c-0.8,0.6-15.8,8.7-20,11.2c-5.1,2.9-8.4,7.3-8.4,13.8
		c0,0.2,0,19.2,0,22.1c0,6.5,5.1,9.5,8.3,11.4c6.5,3.7,19,10.8,19.5,11.1c3.1,1.9,6.5,3.6,12,0c0.8-0.5,15.2-8.8,19.4-11.2
		c5.1-3,7.8-4.7,7.8-11.2c0-0.2,0-21.3,0-24.7C200.1,260.3,195.7,257.3,192.5,255.4z"/>
	<path d="M141.4,60.5c6.5,3.7,19,10.8,19.5,11.1c3.1,1.9,6.5,3.6,12,0c0.8-0.5,15.2-8.8,19.4-11.2c5.1-3,7.8-4.7,7.8-11.2
		c0-0.2,0-21.3,0-24.7c0-6.5-4.4-9.5-7.6-11.4C185.9,9.4,173.8,2.4,173.3,2c-3.1-1.9-6.3-3.6-11.8,0c-0.8,0.6-15.8,8.7-20,11.2
		c-5.1,2.9-8.4,7.3-8.4,13.8c0,0.2,0,19.2,0,22.1C133.1,55.7,138.2,58.6,141.4,60.5z"/>
	<path d="M141.4,204.7c6.5,3.7,19,10.8,19.5,11.1c3.1,1.9,6.5,3.6,12,0c0.8-0.5,15.2-8.8,19.4-11.2c5.1-3,7.8-4.7,7.8-11.2
		c0-0.2,0-74.3,0-77.7c0-6.5-4.4-9.5-7.6-11.4c-6.5-3.7-18.6-10.7-19.2-11.1c-3.1-1.9-6.3-3.6-11.8,0c-0.8,0.6-15.8,8.7-20,11.2
		c-5.1,2.9-8.4,7.3-8.4,13.8c0,0.2,0,72.2,0,75.1C133.1,199.9,138.2,202.8,141.4,204.7z"/>
	<path d="M60,255.4c-6.5-3.7-18.4-10.7-18.9-11.1c-3.1-1.9-6.2-3.6-11.7,0c-0.8,0.6-15.3,8.7-19.5,11.2c-5.1,2.9-7.9,7.3-7.9,13.8
		c0,0.2,0,19.2,0,22.1c0,6.5,4.6,9.5,7.9,11.4c6.5,3.7,18.8,10.8,19.3,11.1c3.1,1.9,6.3,3.6,11.8,0c0.8-0.5,14.7-8.8,18.8-11.2
		c5.1-3,7.2-4.7,7.2-11.2c0-0.2,0-21.3,0-24.7C67.1,260.3,63.2,257.3,60,255.4z"/>
	<path d="M427.5,235.7c-33.7-10.5-64.1-20.7-64.1-55.6c0-29.9,21-48.9,64.5-48.9c21.9,0,34.1,3.8,40,7.2c2.1,1.3,3.3,3,4.5,8.9
		l6.1,35.8l28.6,2.5v-71.6c-14-5.5-42.5-14.7-77.9-14.7c-58.6,0-105.3,25.7-105.3,86c0,63.6,49.3,74.6,91.9,87.3
		c32.9,9.7,62,20.7,62,57.8c0,36.7-25.7,53.2-68.7,53.2c-24.4,0-40.9-4.9-47.2-7c-5.9-2.1-7.2-3.5-8.4-9l-8-36.6h-28.3v68.1
		c12,6.3,50.2,16,88.5,16c60.3,0,111.7-23.6,111.7-88.9C517.3,262.6,469.7,248.7,427.5,235.7z"/>
	<path d="M674.6,188.8c-28.7,0-52.3,11.7-75.4,29l-1.3-0.5l-3.8-24.7h-55.6l-3.8,22.6l24,8.2c4.2,1.3,5.5,4.2,5.5,8.8v232.6
		c0,6.3-1.5,7.6-7.4,8.4l-17.6,2.5v23.7h108v-23.3l-39.4-3.4c-6.3-0.4-6.6-1.7-6.6-8.4v-72.9c20,17.3,40.5,23.2,64.5,23.2
		c66.2,0,88.1-58.2,88.1-121.4C753.8,219.2,721.8,188.8,674.6,188.8z M659.3,383.2c-22.3,0-44.2-13.5-58.2-27.4V247.5
		c12-9.7,37.9-26.1,64.8-26.1c26.1,0,48.8,18.1,48.8,75.4C714.8,349.9,699.4,383.2,659.3,383.2z"/>
	<path d="M937.1,192.7c-9-2.1-20.9-3.9-30.6-3.9c-28.7,0-49.6,18.1-63.5,33.7l-1.3-0.5l-4.2-29.3h-55.2l-3.8,22.6l24,8.2
		c4.2,1.3,5.5,4.2,5.5,8.8v143.3c0,6.3-0.9,7.6-6.8,8.4l-21.2,2.5v23.1h111V387l-38-3.4c-6.3-0.4-6-1.7-6-8.4V248.3
		c9-9.3,30.9-26.6,49.8-26.6c3.8,0,4.3,0.8,4.8,4.2l5.2,29.1l30.2,1.3V192.7z"/>
	<path d="M1059.8,188.9c-53.1,0-96.1,35.8-96.1,113c0,62.8,24.9,113,101.2,113c30.3,0,55.6-7.2,76.7-19l-12.2-28.7
		c-22.3,11-37.1,15.2-60.7,15.2c-45.9,0-63.2-28.7-64.5-71.7h141.6c0.4-7,0.8-15.6,0.8-21C1146.7,216.7,1111.3,188.9,1059.8,188.9z
		 M1004.6,280.6c3.4-46,27-62,55.2-62c25.7,0,47.6,14,48.5,62H1004.6z"/>
	<path d="M1364.1,375.6v-284H1301l-4,22.3l25.1,8c3.8,1.3,5,4.2,5,8.4v78.8c-16-11.8-38.7-20.2-64-20.2
		c-50.6,0-87.6,34.1-87.6,117.2c0,77.5,31.6,108.7,79.7,108.7c32.9,0,54.8-14.8,74.2-33.3l1.7,0.4l3.4,27.8h58.8V387l-21.9-3
		C1364.9,383.2,1364.1,382.3,1364.1,375.6z M1327.1,347.8c-19,18.5-38.8,35-63.6,35c-29.5,0-49.3-19-49.3-77.5
		c0-50.2,15.6-84.7,55.2-84.7c22.3,0,43.7,12.2,57.7,22.8V347.8z"/>
	<path d="M1492.1,374.7V222.6h72v-30h-69.4c-3.4,0-2.6-0.8-2.6-3.7v-29.1c0-27.4,5.5-44.3,36.7-44.3c19.4,0,28.7,4.2,28.7,26.6
		l35.8-5.1c0-41.7-28.6-50.2-63.2-50.2c-52.3,0-77.1,24.9-77.1,74.2v31.6h-34v30h30.5c3.4,0,3.5,1.2,3.5,3.8v149.2
		c0,6.3-1,8-6.9,8.4l-27.1,2.5v23.1h127V387l-48.3-3.8C1491.5,382.7,1492.1,381.5,1492.1,374.7z"/>
	<path d="M1753.1,375.6V263.9c0-58.2-19.6-75-79.5-75c-33.3,0-80.7,5.9-80.7,57.7l36.2,3.8c0.4-31.6,18.9-32.5,44.6-32.5
		c36.7,0,42.4,15.2,42.4,45.9v22.3l-56.7,4.6c-50.6,4.2-76.5,24-76.5,66.2c0,21.5,6.7,57.7,59.4,57.7c32.5,0,56.1-13.9,76.3-32.9
		l1.3,0.4l3.8,27.3h57.5V387l-21.4-3C1753.4,383.2,1753.1,382.3,1753.1,375.6z M1716.1,352.4c-12,12.2-39.5,32.5-64.4,32.5
		c-19.8,0-29.4-9.3-29.4-32c0-21.9,10-32.5,46.3-35.8l47.5-4.2V352.4z"/>
	<path d="M1901,285c-27.4-7.2-52.7-12.2-52.7-36.2c0-18.1,13.9-31.6,44.7-31.6c14.3,0,27,2.5,32.9,4.6c3.4,0.8,3.8,2.5,4.2,5.5
		l5,26.1l28.1,1.7v-54.4c-9-3.8-36.1-11.8-66.4-11.8c-43.4,0-83.7,17.7-83.7,65.7c0,46.4,37.1,54.8,70,62.4c27,6.3,51,12.2,51,37.5
		c0,22.8-18.1,33.3-46.4,33.3c-21.1,0-35.8-4.6-41.3-6.7c-3.8-1.3-4.6-3-5-5.9l-5-29.1l-28.1-1.7v56.1c7,4.6,42,14.3,76.2,14.3
		c44.7,0,85.4-16.9,85.4-65.7C1969.7,303.5,1933.9,293.4,1901,285z"/>
	<path d="M2089.4,383.2c-24,0-30.3-10.1-30.3-36.7V222.6h65v-30h-61.6c-3.4,0-3.4-1.2-3.4-3.7v-51.3h-24.9
		c-5.5,42-16.1,55.9-48.1,60.1v24.9h31.3c3.4,0,2.7,1.2,2.7,3.8v131.5c0,37.9,18.4,56.9,58.9,56.9c21.5,0,42-6.3,58.9-13.1l-9.3-27
		C2117.2,379.4,2102.5,383.2,2089.4,383.2z"/>
</g>
</svg>
